# xmcd CD database file generated by OrangeCD 6.4
#
# Track frame offsets:
#	150
#	13908
#	31794
#	48734
#	61462
#	80038
#	97285
#	112756
#	131312
#	145955
#
# Disc length: 2085 seconds
#
# Revision: 0
# Processed by: cddbd v1.5.2PL0 Copyright (c) Steve Scherf et al.
# Submitted via: OrangeCD 6.4
#
DISCID=8908230a
DTITLE=Katie Grace - Best Bad Girl
DYEAR=2012
DGENRE=
TTITLE0=Best Bad Girl
TTITLE1=Hey, Bartender
TTITLE2=Last Goodbye
TTITLE3=Wine On The Workdays, Whiskey On The Weekends
TTITLE4=Can't Save Them All
TTITLE5=Black Train
TTITLE6=All That Matters
TTITLE7=When You're Around
TTITLE8=For A While
TTITLE9=Not Welcome Here No More
EXTD=
EXTT0=
EXTT1=
EXTT2=
EXTT3=
EXTT4=
EXTT5=
EXTT6=
EXTT7=
EXTT8=
EXTT9=
PLAYORDER=
